<svg width="20" height="20" viewBox="0 0 20 20" fill="none" xmlns="http://www.w3.org/2000/svg">
<path d="M19.8002 5.37055L18.7982 4.36868C18.6647 4.2349 18.5109 4.16821 18.3371 4.16821C18.1636 4.16821 18.0099 4.2349 17.8764 4.36868L10.0001 12.2445L2.12418 4.36889C1.9906 4.23511 1.83688 4.16842 1.66322 4.16842C1.48949 4.16842 1.33577 4.23511 1.20226 4.36889L0.200471 5.37083C0.0666833 5.50433 0 5.65806 0 5.83178C0 6.00537 0.0668939 6.15909 0.200471 6.2926L9.53915 15.6315C9.67266 15.7651 9.82645 15.8318 10.0001 15.8318C10.1738 15.8318 10.3273 15.7651 10.4607 15.6315L19.8002 6.2926C19.9337 6.15902 20 6.0053 20 5.83178C20 5.65806 19.9337 5.50433 19.8002 5.37055Z" fill="#3E4958"/>
</svg>
