<svg width="20" height="20" viewBox="0 0 20 20" fill="none" xmlns="http://www.w3.org/2000/svg">
<g clip-path="url(#clip0)">
<path fill-rule="evenodd" clip-rule="evenodd" d="M17.6889 3.34444C17.4667 2.68889 16.8444 2.22222 16.1111 2.22222H13.3333V1.11111C13.3333 0.5 12.8333 0 12.2222 0H7.77778C7.16667 0 6.66667 0.5 6.66667 1.11111V2.22222H3.88889C3.15556 2.22222 2.54444 2.68889 2.31111 3.34444L0.122222 9.64445C0.0444443 9.87778 0 10.1222 0 10.3778V18.3333C0 19.2556 0.744444 20 1.66667 20C2.58889 20 3.33333 19.2556 3.33333 18.3333V17.7778H16.6667V18.3333C16.6667 19.2444 17.4111 20 18.3333 20C19.2444 20 20 19.2556 20 18.3333V10.3778C20 10.1333 19.9556 9.87778 19.8778 9.64445L17.6889 3.34444ZM3.88889 14.4444C2.96667 14.4444 2.22222 13.7 2.22222 12.7778C2.22222 11.8556 2.96667 11.1111 3.88889 11.1111C4.81111 11.1111 5.55556 11.8556 5.55556 12.7778C5.55556 13.7 4.81111 14.4444 3.88889 14.4444ZM16.1111 14.4444C15.1889 14.4444 14.4444 13.7 14.4444 12.7778C14.4444 11.8556 15.1889 11.1111 16.1111 11.1111C17.0333 11.1111 17.7778 11.8556 17.7778 12.7778C17.7778 13.7 17.0333 14.4444 16.1111 14.4444ZM2.22222 8.88889L3.88889 3.88889H16.1111L17.7778 8.88889H2.22222Z" fill="#FDC501"/>
</g>
<defs>
<clipPath id="clip0">
<rect width="20" height="20" fill="white"/>
</clipPath>
</defs>
</svg>
