<svg width="20" height="20" viewBox="0 0 20 20" fill="none" xmlns="http://www.w3.org/2000/svg">
<path d="M14.7135 1.95309C13.4116 0.650893 11.8403 0 9.99999 0C8.15964 0 6.58851 0.65103 5.28645 1.95309C3.98443 3.2551 3.33336 4.82629 3.33336 6.66664C3.33336 7.61292 3.47656 8.38973 3.76292 8.99739L8.51556 19.0757C8.64581 19.362 8.84771 19.5877 9.12112 19.7524C9.39457 19.9174 9.6875 20 10.0001 20C10.3126 20 10.6056 19.9174 10.8791 19.7524C11.1525 19.5877 11.3585 19.362 11.4974 19.0757L16.2367 8.99739C16.5232 8.38973 16.6665 7.61287 16.6665 6.66664C16.6668 4.82629 16.0158 3.25529 14.7135 1.95309ZM12.3567 9.02343C11.7057 9.67432 10.9202 9.99991 9.99999 9.99991C9.0798 9.99991 8.29427 9.67432 7.64315 9.02343C6.99212 8.37231 6.66654 7.58679 6.66654 6.66659C6.66654 5.74648 6.99212 4.96082 7.64315 4.30989C8.29427 3.65886 9.07993 3.33327 9.99999 3.33327C10.9202 3.33327 11.7057 3.65886 12.3567 4.30989C13.0076 4.96078 13.3332 5.74648 13.3332 6.66659C13.3332 7.5867 13.0077 8.37217 12.3567 9.02343Z" fill="#FDC501"/>
</svg>
