<svg width="30" height="30" viewBox="0 0 30 30" fill="none" xmlns="http://www.w3.org/2000/svg">
<g clip-path="url(#clip0)">
<path d="M28.3493 1.65024C27.2495 0.550148 25.9244 0 24.3751 0H5.62497C4.07563 0 2.75054 0.550148 1.65024 1.65024C0.550149 2.75053 0 4.07555 0 5.62496V24.3749C0 25.9241 0.550149 27.2493 1.65024 28.3496C2.75054 29.4499 4.07563 30 5.62497 30H24.3749C25.9242 30 27.2493 29.4499 28.3491 28.3496C29.4494 27.2493 29.9996 25.9242 29.9996 24.3749V5.62496C29.9995 4.07555 29.4494 2.75033 28.3493 1.65024ZM24.5697 22.7717C24.2962 23.3705 23.681 23.8916 22.7242 24.3346C21.7671 24.7775 20.9173 24.999 20.1749 24.999C19.9665 24.999 19.7451 24.9829 19.5108 24.9503C19.2764 24.9176 19.0782 24.8852 18.9154 24.8526C18.7527 24.8201 18.5376 24.7616 18.2709 24.6768C18.0038 24.5924 17.8116 24.5271 17.6948 24.4816C17.5773 24.4362 17.3626 24.3547 17.0503 24.2376C16.7377 24.1201 16.5422 24.0485 16.4646 24.023C14.3292 23.2412 12.2423 21.8319 10.2046 19.7943C8.16699 17.7562 6.75742 15.6698 5.97611 13.5347C5.95025 13.4565 5.87863 13.2611 5.76131 12.9488C5.64419 12.6365 5.56258 12.4215 5.51702 12.3044C5.47173 12.1873 5.40653 11.9952 5.32184 11.7284C5.23722 11.4614 5.1788 11.2468 5.14617 11.0838C5.11347 10.9213 5.08118 10.7228 5.04855 10.4884C5.01599 10.2539 4.99977 10.0323 4.99977 9.82413C4.99977 9.08189 5.22121 8.23231 5.66403 7.27526C6.10677 6.31835 6.62751 5.70315 7.22657 5.42965C7.91668 5.14308 8.57423 4.99983 9.19929 4.99983C9.34233 4.99983 9.44666 5.01297 9.51158 5.03896C9.57677 5.0653 9.68424 5.18221 9.83406 5.39059C9.98388 5.59896 10.1466 5.86254 10.3223 6.1816C10.4981 6.50073 10.6706 6.81001 10.8399 7.10937C11.0091 7.4088 11.1719 7.70487 11.3283 7.99808C11.4845 8.2908 11.5821 8.4766 11.6211 8.55445C11.6602 8.61992 11.7449 8.7434 11.875 8.92584C12.0051 9.10802 12.103 9.27056 12.168 9.41395C12.233 9.55719 12.2656 9.69394 12.2656 9.82413C12.2656 10.0197 12.132 10.2572 11.8651 10.537C11.5981 10.817 11.3051 11.0742 10.9861 11.3087C10.667 11.5431 10.3742 11.7938 10.1072 12.0608C9.84049 12.3275 9.70689 12.5456 9.70689 12.7149C9.70689 12.8061 9.72967 12.9134 9.7753 13.0371C9.82086 13.1611 9.8632 13.262 9.90227 13.34C9.94133 13.418 10.0033 13.5288 10.0878 13.6722C10.1724 13.8155 10.2279 13.9066 10.2538 13.9457C10.9698 15.2348 11.7935 16.3448 12.7243 17.276C13.6555 18.2072 14.7654 19.0305 16.0546 19.7467C16.0934 19.773 16.1847 19.8282 16.3285 19.9129C16.4716 19.9972 16.5825 20.0591 16.6605 20.0981C16.7387 20.1372 16.8393 20.1796 16.9632 20.2248C17.0871 20.2702 17.1945 20.2931 17.286 20.2931C17.4937 20.2931 17.7803 20.0785 18.1453 19.6489C18.5097 19.2188 18.8811 18.7925 19.2587 18.3693C19.636 17.9464 19.9418 17.7348 20.1766 17.7348C20.3067 17.7348 20.4432 17.7672 20.587 17.8323C20.7303 17.8973 20.8927 17.9952 21.0749 18.1253C21.2575 18.256 21.3811 18.3403 21.4462 18.3799L22.4809 18.9457C23.1711 19.3104 23.7472 19.6326 24.2096 19.9126C24.672 20.1926 24.9227 20.3845 24.9619 20.4885C24.9878 20.5536 25.0004 20.658 25.0004 20.8013C25 21.4257 24.8566 22.0834 24.5697 22.7717Z" fill="#FDC501"/>
</g>
<defs>
<clipPath id="clip0">
<rect width="30" height="30" fill="white"/>
</clipPath>
</defs>
</svg>
