<svg width="20" height="20" viewBox="0 0 20 20" fill="none" xmlns="http://www.w3.org/2000/svg">
<g clip-path="url(#clip0)">
<path d="M18.6592 4.98038C17.7649 3.44836 16.5519 2.23536 15.0199 1.34115C13.4875 0.44699 11.8148 0 10.0003 0C8.18602 0 6.51276 0.44699 4.9807 1.34115C3.44854 2.23523 2.23554 3.44822 1.34129 4.98038C0.44699 6.51262 0 8.18588 0 10C0 11.8143 0.447127 13.4872 1.34115 15.0196C2.23536 16.5516 3.44836 17.7646 4.98052 18.6589C6.51276 19.553 8.18588 20 10.0001 20C11.8143 20 13.4877 19.553 15.0198 18.6589C16.5519 17.7649 17.7648 16.5516 18.659 15.0196C19.553 13.4874 20 11.8142 20 10C20 8.1857 19.553 6.51239 18.6592 4.98038ZM16.133 13.5546C15.4993 14.6397 14.64 15.4993 13.555 16.133C12.4699 16.7666 11.2851 17.0831 10.0002 17.0831C8.71556 17.0831 7.53061 16.7666 6.44544 16.133C5.36042 15.4993 4.5011 14.6397 3.86744 13.5546C3.23365 12.4696 2.91686 11.2847 2.91686 10C2.91686 8.71524 3.23378 7.53033 3.86744 6.44531C4.50096 5.36028 5.36051 4.50078 6.44544 3.86717C7.53047 3.23346 8.71538 2.91672 10.0002 2.91672C11.285 2.91672 12.4699 3.23346 13.555 3.86717C14.64 4.50082 15.4994 5.36028 16.133 6.44531C16.7667 7.53033 17.0833 8.71524 17.0833 10C17.0833 11.2847 16.7667 12.4696 16.133 13.5546Z" fill="#FDC501"/>
<path d="M11.2503 4.99991H10.4168C10.2951 4.99991 10.1955 5.03908 10.1172 5.11712C10.0394 5.19524 10.0002 5.29498 10.0002 5.41653V10H7.08355C6.96191 10 6.86222 10.039 6.78405 10.1169C6.70597 10.195 6.66693 10.2948 6.66693 10.4166V11.2499C6.66693 11.3715 6.70597 11.4714 6.78405 11.5494C6.86226 11.6274 6.96214 11.6664 7.08355 11.6664H11.2505C11.3719 11.6664 11.4718 11.6274 11.5497 11.5494C11.6277 11.4714 11.6671 11.3715 11.6671 11.2499V5.41653C11.6671 5.29508 11.6277 5.19538 11.5497 5.11712C11.4717 5.03908 11.3718 4.99991 11.2503 4.99991Z" fill="#FDC501"/>
</g>
<defs>
<clipPath id="clip0">
<rect width="20" height="20" fill="white"/>
</clipPath>
</defs>
</svg>
